<svg id="Layer_1" height="512" viewBox="0 0 128 128" width="512" xmlns="http://www.w3.org/2000/svg" data-name="Layer 1"><path d="m96.833 116h-65.666l7-81.084h51.666z" fill="#f72961"/><path d="m64 12-29.625 22.916h59.25z" fill="#0b607e"/><path d="m93.625 34.916-29.625-22.916v22.916z" fill="#06465e"/><path d="m64 116h32.833l-7-81.084h-25.833z" fill="#c71944"/><path d="m35.837 61.904-15.337 7.639-8.5 46.457h19.167z" fill="#fed943"/><path d="m92.163 61.904 15.337 7.639 8.5 46.457h-19.167z" fill="#fbbe2c"/><path d="m81.38 113.93v2.07h-34.76v-21.99a16.613 16.613 0 0 1 .09-1.74 17.372 17.372 0 0 1 34.57 0 16.613 16.613 0 0 1 .09 1.74v2.07z" fill="#ffd4ba"/><path d="m61.834 46.692-1.893 1.893-31.359-22.874 10.378-10.378z" fill="#24d7de"/><path d="m68.059 48.585-1.893-1.893 22.874-31.359 10.378 10.378z" fill="#1cabdd"/><path d="m66.166 54.81 1.893-1.893 31.359 22.874-10.378 10.378z" fill="#1cabdd"/><path d="m59.941 52.917 1.893 1.893-22.874 31.359-10.378-10.378z" fill="#24d7de"/><circle cx="64" cy="50.751" fill="#e7ffff" r="8"/><path d="m72 50.751a8 8 0 0 0 -8-8v16a8 8 0 0 0 8-8z" fill="#cce8f7"/><path d="m64 76.633v39.367h17.375v-21.992a17.375 17.375 0 0 0 -17.375-17.375z" fill="#ffb698"/><path d="m81.38 113.93v2.07h-3.28l-14.1-8.93-14.1 8.93h-3.28v-2.07l14.11-8.93-14.11-8.92v-2.07a16.613 16.613 0 0 1 .09-1.74 1.63 1.63 0 0 1 .85.26l16.44 10.4 16.44-10.4a1.722 1.722 0 0 1 .84-.26 16.613 16.613 0 0 1 .09 1.74v2.07l-14.1 8.92z" fill="#06465e"/></svg>